<?xml version="1.0" encoding="UTF-8"?>
<svg width="28px" height="28px" viewBox="0 0 28 28" version="1.1" xmlns="http://www.w3.org/2000/svg" xmlns:xlink="http://www.w3.org/1999/xlink">
    <title>Documentation</title>
    <g id="Documentation" stroke="none" stroke-width="1" fill="none" fill-rule="evenodd">
        <g transform="translate(5.000000, 4.000000)">
            <polygon id="Path" fill="#D8D8D8" points="17 5.61829834 17 22 0 22 0 3.56218126e-13 12.0225879 2.95688874e-14"></polygon>
            <polygon id="Path-12" fill="#999999" points="12 0 12 5.61829834 17 5.61829834"></polygon>
            <path d="M9.53320312,14.3808594 L9.55664062,14.0234375 C9.59960938,13.640625 9.76953125,13.3066406 10.0664062,13.0214844 L10.0664062,13.0214844 L10.5410156,12.5703125 C10.9121094,12.2109375 11.171875,11.8837891 11.3203125,11.5888672 C11.46875,11.2939453 11.5429688,10.9804688 11.5429688,10.6484375 C11.5429688,9.91796875 11.3144531,9.35253906 10.8574219,8.95214844 C10.4003906,8.55175781 9.7578125,8.3515625 8.9296875,8.3515625 C8.109375,8.3515625 7.46191406,8.5625 6.98730469,8.984375 C6.51269531,9.40625 6.27148438,9.99023438 6.26367188,10.7363281 L6.26367188,10.7363281 L7.96289062,10.7363281 C7.97070312,10.4238281 8.06152344,10.1787109 8.23535156,10.0009766 C8.40917969,9.82324219 8.640625,9.734375 8.9296875,9.734375 C9.5390625,9.734375 9.84375,10.0644531 9.84375,10.7246094 C9.84375,10.9433594 9.78515625,11.1513672 9.66796875,11.3486328 C9.55078125,11.5458984 9.31542969,11.8017578 8.96191406,12.1162109 C8.60839844,12.4306641 8.36523438,12.75 8.23242188,13.0742188 C8.09960938,13.3984375 8.03320312,13.8339844 8.03320312,14.3808594 L8.03320312,14.3808594 L9.53320312,14.3808594 Z M8.8125,17.0703125 C9.09765625,17.0703125 9.32714844,16.9863281 9.50097656,16.8183594 C9.67480469,16.6503906 9.76171875,16.4375 9.76171875,16.1796875 C9.76171875,15.9179688 9.67285156,15.7021484 9.49511719,15.5322266 C9.31738281,15.3623047 9.08984375,15.2773438 8.8125,15.2773438 C8.53515625,15.2773438 8.30761719,15.3623047 8.12988281,15.5322266 C7.95214844,15.7021484 7.86328125,15.9179688 7.86328125,16.1796875 C7.86328125,16.4375 7.95019531,16.6503906 8.12402344,16.8183594 C8.29785156,16.9863281 8.52734375,17.0703125 8.8125,17.0703125 Z" id="?" fill="#FFFFFF" fill-rule="nonzero"></path>
        </g>
    </g>
</svg>