<svg width="28" height="28" viewBox="0 0 28 28" fill="none" xmlns="http://www.w3.org/2000/svg">
<rect width="28" height="28" fill="white"/>
<path d="M10.032 6V7.314H19.428V6H10.032ZM10.032 10.338V11.634H19.5V10.338H10.032ZM9.888 14.694V15.99H19.41V14.694H9.888ZM9.204 6V11.562C9.204 14.46 8.898 18.114 6 20.652C6.288 20.85 6.828 21.336 7.026 21.624C10.122 18.924 10.572 14.676 10.572 11.562V6H9.204ZM18.834 6V19.608C18.834 20.004 18.69 20.13 18.276 20.148C17.862 20.148 16.386 20.166 14.892 20.112C15.126 20.49 15.378 21.138 15.468 21.534C17.412 21.534 18.6 21.516 19.302 21.282C19.986 21.048 20.238 20.58 20.238 19.626V6H18.834Z" fill="black"/>
</svg>
