<svg width="28" height="28" viewBox="0 0 28 28" fill="none" xmlns="http://www.w3.org/2000/svg">
<rect width="28" height="28" fill="white"/>
<path d="M6.926 6.30205C7.898 7.13005 9.086 8.31805 9.662 9.07405L10.562 8.13805C9.986 7.38205 8.762 6.26605 7.772 5.45605L6.926 6.30205ZM8.294 20.9541C8.564 20.5941 9.014 20.2341 12.056 18.0021C11.93 17.7501 11.75 17.2101 11.642 16.8681L8.456 19.1181L8.078 19.6941L8.294 20.9541ZM5.828 10.5321V11.8461H9.158V10.5321H5.828ZM11.624 5.79805V7.04005H20.804V5.79805H11.624ZM12.074 8.84006V10.0101H19.004V8.84006H12.074ZM12.776 11.8281V18.7941H13.982V11.8281H12.776ZM13.532 11.8281V13.0161H16.916V16.4181H13.532V17.5881H18.122V11.8281H13.532ZM20.3 5.79805V19.6941C20.3 20.0001 20.192 20.1081 19.886 20.1081C19.562 20.1261 18.5 20.1441 17.384 20.0901C17.582 20.4501 17.78 21.0801 17.852 21.4401C19.328 21.4401 20.3 21.4221 20.84 21.2061C21.416 20.9721 21.596 20.5581 21.596 19.7121V5.79805H20.3ZM8.294 20.9541C8.294 20.4321 9.788 19.1361 9.788 19.1361V10.5321H8.51V18.1821C8.51 19.1001 7.862 19.7481 7.538 20.0181C7.754 20.2341 8.15 20.6841 8.294 20.9541Z" fill="black"/>
</svg>
