<?xml version="1.0" encoding="UTF-8"?>
<svg width="28px" height="28px" viewBox="0 0 28 28" version="1.1" xmlns="http://www.w3.org/2000/svg" xmlns:xlink="http://www.w3.org/1999/xlink">
    <title>Invoices</title>
    <g id="Invoices" stroke="none" stroke-width="1" fill="none" fill-rule="evenodd">
        <g transform="translate(4.000000, 3.000000)">
            <polygon id="Path-4" fill="#D8D8D8" points="0 22 0 0 3.66259766 2.09179687 7 0 10 2.09179687 13 0 16.3847656 2.09179687 20 -8.00772704e-17 20 22 16.4267578 20.0234375 13.3808594 22 10.1669922 20.0234375 6.88818359 22 3.60107422 20.0234375"></polygon>
            <path d="M9.97851562,15.2919922 L9.97851562,14.3105469 C10.5872396,14.2519531 11.0681966,14.046875 11.4213867,13.6953125 C11.7745768,13.34375 11.9511719,12.8896484 11.9511719,12.3330078 C11.9511719,12.0042318 11.8958333,11.7226562 11.7851562,11.4882812 C11.6744792,11.2539062 11.5214844,11.0488281 11.3261719,10.8730469 C11.1308594,10.6972656 10.8989258,10.5402018 10.6303711,10.4018555 C10.3618164,10.2635091 10.0761719,10.1300456 9.7734375,10.0014648 C9.47070312,9.87288411 9.25097656,9.73779297 9.11425781,9.59619141 C8.97753906,9.45458984 8.90917969,9.26334635 8.90917969,9.02246094 C8.90917969,8.78483073 8.96858724,8.59847005 9.08740234,8.46337891 C9.20621745,8.32828776 9.37304688,8.26074219 9.58789062,8.26074219 C9.82877604,8.26074219 10.0143229,8.35188802 10.1445312,8.53417969 C10.2747396,8.71647135 10.3398438,8.97688802 10.3398438,9.31542969 L10.3398438,9.31542969 L11.9902344,9.31542969 C11.9902344,8.6969401 11.8201497,8.1866862 11.4799805,7.78466797 C11.1398112,7.38264974 10.671875,7.13769531 10.0761719,7.04980469 L10.0761719,7.04980469 L10.0761719,6 L9.29980469,6 L9.29980469,7.03027344 C8.6813151,7.08886719 8.18652344,7.29638672 7.81542969,7.65283203 C7.44433594,8.00927734 7.25878906,8.4625651 7.25878906,9.01269531 C7.25878906,9.34147135 7.3108724,9.62141927 7.41503906,9.85253906 C7.51920573,10.0836589 7.66894531,10.2871094 7.86425781,10.4628906 C8.05957031,10.6386719 8.29231771,10.7932943 8.5625,10.9267578 C8.83268229,11.0602214 9.12727865,11.1920573 9.44628906,11.3222656 C9.76529948,11.452474 9.98828125,11.5908203 10.1152344,11.7373047 C10.2421875,11.8837891 10.3056641,12.085612 10.3056641,12.3427734 C10.3056641,12.5738932 10.2421875,12.7553711 10.1152344,12.887207 C9.98828125,13.019043 9.8141276,13.0849609 9.59277344,13.0849609 C9.29003906,13.0849609 9.05647786,12.9881185 8.89208984,12.7944336 C8.72770182,12.6007487 8.64550781,12.3183594 8.64550781,11.9472656 L8.64550781,11.9472656 L7,11.9472656 C7,12.6210938 7.18961589,13.1638997 7.56884766,13.5756836 C7.94807943,13.9874674 8.49251302,14.2307943 9.20214844,14.3056641 L9.20214844,14.3056641 L9.20214844,15.2919922 L9.97851562,15.2919922 Z" id="$" fill="#979797" fill-rule="nonzero"></path>
        </g>
    </g>
</svg>