<?xml version="1.0" encoding="UTF-8"?>
<svg width="24px" height="24px" viewBox="0 0 24 24" version="1.1" xmlns="http://www.w3.org/2000/svg" xmlns:xlink="http://www.w3.org/1999/xlink">
    <title>Group 7</title>
    <g id="Left-Menu" stroke="none" stroke-width="1" fill="none" fill-rule="evenodd">
        <g transform="translate(-942.000000, -786.000000)" fill-rule="nonzero" id="Group-7">
            <g transform="translate(943.000000, 787.000000)">
                <path d="M18.4789048,11.0016254 C18.1691077,10.978188 17.8984264,11.2109987 17.8749569,11.5203713 C17.7450924,13.2453577 16.9737288,14.8469076 15.7032476,16.0297108 C14.4249432,17.2203265 12.7586101,17.8750088 11.0109161,17.8750088 C9.6496862,17.8750088 8.33383065,17.4796994 7.20573094,16.7297053 C6.21375423,16.071898 5.41422725,15.1765925 4.87755846,14.1250383 L6.4421905,14.1250383 C6.75355228,14.1250383 7.00545804,13.8734778 7.00545804,13.5625427 C7.00545804,13.2516077 6.75355228,13.0000472 6.4421905,13.0000472 L3.56326754,13.0000472 C3.25190576,13.0000472 3,13.2516077 3,13.5625427 L3,16.4375201 C3,16.7484552 3.25190576,17.0000157 3.56326754,17.0000157 C3.87462931,17.0000157 4.12653507,16.7484552 4.12653507,16.4375201 L4.12653507,15.0937807 C4.7383062,16.1203351 5.57538435,16.9984532 6.58144276,17.667198 C7.89573368,18.5390661 9.42594382,19 11.0109161,19 C13.0449377,19 14.9850815,18.237506 16.4714819,16.8531419 C17.9516238,15.4765902 18.848158,13.6125423 18.9983627,11.6047456 C19.0218322,11.295373 18.7902666,11.0250627 18.4789048,11.0016254 Z M18.4367872,5 C18.1254557,5 17.8735744,5.2515625 17.8735744,5.5625 L17.8735744,6.90625 C17.2618627,5.8796875 16.4248659,5.0015625 15.4173408,4.3328125 C14.1047421,3.4609375 12.5731161,3 10.9898624,3 C8.95603834,3 7.01608313,3.7625 5.52982712,5.146875 C4.04982903,6.5234375 3.15338199,8.3875 3.00162743,10.3953125 C2.97816023,10.7046875 3.21126775,10.975 3.52103479,10.9984375 C3.53511511,11 3.54919543,11 3.56327575,11 C3.85583351,11 4.10145687,10.775 4.12492407,10.4796875 C4.25477592,8.7546875 5.02606456,7.153125 6.29642233,5.9703125 C7.57616697,4.7796875 9.24233818,4.125 10.9898624,4.125 C12.35096,4.125 13.6666876,4.5203125 14.7946777,5.2703125 C15.7865581,5.928125 16.5860073,6.8234375 17.122624,7.875 L15.558144,7.875 C15.2468125,7.875 14.9949312,8.1265625 14.9949312,8.4375 C14.9949312,8.7484375 15.2468125,9 15.558144,9 L18.4367872,9 C18.7481187,9 19,8.7484375 19,8.4375 L19,5.5625 C19,5.2515625 18.7481187,5 18.4367872,5 Z" id="Shape" stroke="#0079FF" stroke-width="0.5" fill="#0079FF" transform="translate(11.000000, 11.000000) rotate(-120.000000) translate(-11.000000, -11.000000) "></path>
                <path d="M11.3837891,15.5644531 L11.3837891,14.5830078 C11.992513,14.5244141 12.4734701,14.3193359 12.8266602,13.9677734 C13.1798503,13.6162109 13.3564453,13.1621094 13.3564453,12.6054688 C13.3564453,12.2766927 13.3011068,11.9951172 13.1904297,11.7607422 C13.0797526,11.5263672 12.9267578,11.3212891 12.7314453,11.1455078 C12.5361328,10.9697266 12.3041992,10.8126628 12.0356445,10.6743164 C11.7670898,10.5359701 11.4814453,10.4025065 11.1787109,10.2739258 C10.8759766,10.1453451 10.65625,10.0102539 10.5195312,9.86865234 C10.3828125,9.72705078 10.3144531,9.53580729 10.3144531,9.29492188 C10.3144531,9.05729167 10.3738607,8.87093099 10.4926758,8.73583984 C10.6114909,8.6007487 10.7783203,8.53320313 10.9931641,8.53320313 C11.2340495,8.53320313 11.4195964,8.62434896 11.5498047,8.80664063 C11.680013,8.98893229 11.7451172,9.24934896 11.7451172,9.58789063 L13.3955078,9.58789063 C13.3955078,8.96940104 13.2254232,8.45914714 12.8852539,8.05712891 C12.5450846,7.65511068 12.0771484,7.41015625 11.4814453,7.32226563 L11.4814453,6.27246094 L10.7050781,6.27246094 L10.7050781,7.30273438 C10.0865885,7.36132813 9.59179688,7.56884766 9.22070312,7.92529297 C8.84960938,8.28173828 8.6640625,8.73502604 8.6640625,9.28515625 C8.6640625,9.61393229 8.71614583,9.89388021 8.8203125,10.125 C8.92447917,10.3561198 9.07421875,10.5595703 9.26953125,10.7353516 C9.46484375,10.9111328 9.69759115,11.0657552 9.96777344,11.1992188 C10.2379557,11.3326823 10.5325521,11.4645182 10.8515625,11.5947266 C11.1705729,11.7249349 11.3935547,11.8632813 11.5205078,12.0097656 C11.6474609,12.15625 11.7109375,12.3580729 11.7109375,12.6152344 C11.7109375,12.8463542 11.6474609,13.027832 11.5205078,13.159668 C11.3935547,13.2915039 11.219401,13.3574219 10.9980469,13.3574219 C10.6953125,13.3574219 10.4617513,13.2605794 10.2973633,13.0668945 C10.1329753,12.8732096 10.0507812,12.5908203 10.0507812,12.2197266 L8.40527344,12.2197266 C8.40527344,12.8935547 8.59488932,13.4363607 8.97412109,13.8481445 C9.35335286,14.2599284 9.89778646,14.5032552 10.6074219,14.578125 L10.6074219,15.5644531 L11.3837891,15.5644531 Z" id="$" fill="#017AFF"></path>
            </g>
        </g>
    </g>
</svg>