<?xml version="1.0" encoding="UTF-8"?>
<svg width="20px" height="20px" viewBox="0 0 20 20" version="1.1" xmlns="http://www.w3.org/2000/svg" xmlns:xlink="http://www.w3.org/1999/xlink">
    <title>dollar</title>
    <g id="Encounters-/-Payments-Workflow" stroke="none" stroke-width="1" fill="none" fill-rule="evenodd">
        <g id="Encounter-Billing-History" transform="translate(-68.000000, -559.000000)">
            <g id="dollar" transform="translate(69.000000, 560.000000)">
                <circle id="Oval" stroke="#00B695" stroke-width="1.5" cx="9" cy="9" r="9"></circle>
                <path d="M9.45117188,14.1445312 L9.45117188,12.9785156 C10.1777344,12.9042969 10.7480469,12.6601562 11.1621094,12.2460938 C11.5761719,11.8320312 11.7832031,11.2929688 11.7832031,10.6289062 C11.7832031,10.2734375 11.7285156,9.96191406 11.6191406,9.69433594 C11.5097656,9.42675781 11.3515625,9.18847656 11.1445312,8.97949219 C10.9375,8.77050781 10.6835938,8.58300781 10.3828125,8.41699219 C10.0820312,8.25097656 9.69824219,8.07421875 9.23144531,7.88671875 C8.76464844,7.69921875 8.4453125,7.515625 8.2734375,7.3359375 C8.1015625,7.15625 8.015625,6.91796875 8.015625,6.62109375 C8.015625,6.30078125 8.10351562,6.04980469 8.27929688,5.86816406 C8.45507812,5.68652344 8.703125,5.59570312 9.0234375,5.59570312 C9.34765625,5.59570312 9.60644531,5.71191406 9.79980469,5.94433594 C9.99316406,6.17675781 10.0898438,6.52734375 10.0898438,6.99609375 L10.0898438,6.99609375 L11.7832031,6.99609375 C11.7832031,6.234375 11.5878906,5.61425781 11.1972656,5.13574219 C10.8066406,4.65722656 10.265625,4.36914062 9.57421875,4.27148438 L9.57421875,4.27148438 L9.57421875,3 L8.63671875,3 L8.63671875,4.25390625 C7.9375,4.32421875 7.37695312,4.5703125 6.95507812,4.9921875 C6.53320312,5.4140625 6.32226562,5.95507812 6.32226562,6.61523438 C6.32226562,6.99804688 6.38378906,7.328125 6.50683594,7.60546875 C6.62988281,7.8828125 6.80175781,8.12402344 7.02246094,8.32910156 C7.24316406,8.53417969 7.5078125,8.71582031 7.81640625,8.87402344 C8.125,9.03222656 8.4921875,9.19140625 8.91796875,9.3515625 C9.34375,9.51171875 9.64550781,9.68652344 9.82324219,9.87597656 C10.0009766,10.0654297 10.0898438,10.3203125 10.0898438,10.640625 C10.0898438,10.9492188 9.99023438,11.1943359 9.79101562,11.3759766 C9.59179688,11.5576172 9.3203125,11.6484375 8.9765625,11.6484375 C8.5625,11.6484375 8.24511719,11.5244141 8.02441406,11.2763672 C7.80371094,11.0283203 7.69335938,10.671875 7.69335938,10.2070312 L7.69335938,10.2070312 L6,10.2070312 C6,11.0078125 6.21972656,11.6494141 6.65917969,12.1318359 C7.09863281,12.6142578 7.71875,12.8984375 8.51953125,12.984375 L8.51953125,12.984375 L8.51953125,14.1445312 L9.45117188,14.1445312 Z" id="$" fill="#00B695" fill-rule="nonzero"></path>
            </g>
        </g>
    </g>
</svg>