<?xml version="1.0" encoding="UTF-8"?>
<svg width="17px" height="20px" viewBox="0 0 17 20" version="1.1" xmlns="http://www.w3.org/2000/svg" xmlns:xlink="http://www.w3.org/1999/xlink">
    <!-- Generator: Sketch 60 (88103) - https://sketch.com -->
    <title>Group 34</title>
    <desc>Created with Sketch.</desc>
    <g id="Buttons" stroke="none" stroke-width="1" fill="none" fill-rule="evenodd">
        <g id="Icons" transform="translate(-744.000000, -730.000000)">
            <g id="Group-34" transform="translate(742.000000, 730.000000)">
                <g id="Group-29" fill="#D8D8D8" fill-opacity="0">
                    <rect id="Rectangle" x="0" y="0" width="20" height="20"></rect>
                </g>
                <rect id="Rectangle" fill-opacity="0" fill="#D8D8D8" x="0" y="0" width="20" height="20"></rect>
                <g id="Group-17" transform="translate(3.000000, 1.000000)" stroke="#017AFF" stroke-width="1.7">
                    <path d="M1,0 L13.0938297,0 C13.6461145,-1.01453063e-16 14.0938297,0.44771525 14.0938297,1 C14.0938297,1.00184008 14.0938246,1.00368016 14.0938145,1.00552021 L14.0054898,17.0055202 C14.002453,17.555642 13.5556352,18 13.0055051,18 L1,18 C0.44771525,18 6.76353751e-17,17.5522847 0,17 L0,1 C-6.76353751e-17,0.44771525 0.44771525,1.01453063e-16 1,0 Z" id="Rectangle"></path>
                </g>
                <g id="Group-33" transform="translate(6.000000, 0.000000)" fill-rule="nonzero">
                    <path d="M0.818459213,12.9520263 L5.13838046,11.1229013 C5.2080862,11.0935472 5.27045449,11.0513508 5.32548533,10.9981465 L12.6115691,3.71100051 C13.1270246,3.19546979 13.1306934,2.35520975 12.6152378,1.83967903 L11.1605891,0.384818309 C10.6451336,-0.130712413 9.80499602,-0.127043155 9.28954045,0.388487567 L2.00345672,7.67563358 C1.95026024,7.72883782 1.90806992,7.79304983 1.87872014,7.86276573 L0.0480273983,12.1814822 C-0.0546968437,12.4236532 0.0168432534,12.6676588 0.172763978,12.8254369 C0.328684702,12.983215 0.574489138,13.0547655 0.818459213,12.9520263 Z" id="Path" fill="#017AFF"></path>
                    <polygon id="Path" fill="#FFFFFF" points="10.5 1.27807617 11.8242187 2.50982666 10.6484375 3.74157715 9.296875 2.44934082"></polygon>
                    <polygon id="Path" fill="#FFFFFF" points="3.17370605 8.63012695 8.27478027 3.53198242 9.63769531 4.67883301 4.28833008 9.8338623 1.93945312 11.0141602"></polygon>
                </g>
            </g>
        </g>
    </g>
</svg>