<?xml version="1.0" encoding="UTF-8"?>
<svg width="16px" height="20px" viewBox="0 0 16 20" version="1.1" xmlns="http://www.w3.org/2000/svg" xmlns:xlink="http://www.w3.org/1999/xlink">
    <!-- Generator: Sketch 60 (88103) - https://sketch.com -->
    <title>eob</title>
    <desc>Created with Sketch.</desc>
    <g id="Buttons" stroke="none" stroke-width="1" fill="none" fill-rule="evenodd">
        <g id="Icons" transform="translate(-804.000000, -702.000000)">
            <g id="eob" transform="translate(802.000000, 702.000000)">
                <rect id="Rectangle" fill-opacity="0" fill="#D8D8D8" x="0" y="0" width="20" height="20"></rect>
                <g id="Group-17" transform="translate(3.000000, 1.000000)" stroke="#017AFF" stroke-width="1.7">
                    <path d="M1,0 L8.09936523,0 L8.09936523,0 L14,5.36523438 L14,17 C14,17.5522847 13.5522847,18 13,18 L1,18 C0.44771525,18 6.76353751e-17,17.5522847 0,17 L0,1 C-6.76353751e-17,0.44771525 0.44771525,1.01453063e-16 1,0 Z" id="Rectangle"></path>
                    <polyline id="Path-2" stroke-linecap="round" stroke-linejoin="round" points="3.7 11.6010742 6.29895669 14 10.3796875 10"></polyline>
                    <path d="M13.8771973,6 L9,6 C8.44771525,6 8,5.45612921 8,4.78523059 L8,0 L8,0" id="Path"></path>
                </g>
            </g>
        </g>
    </g>
</svg>