<?xml version="1.0" encoding="UTF-8"?>
<svg width="20px" height="20px" viewBox="0 0 20 20" version="1.1" xmlns="http://www.w3.org/2000/svg" xmlns:xlink="http://www.w3.org/1999/xlink">
    <!-- Generator: Sketch 60 (88103) - https://sketch.com -->
    <title>generate</title>
    <desc>Created with Sketch.</desc>
    <g id="Buttons" stroke="none" stroke-width="1" fill="none" fill-rule="evenodd">
        <g id="Icons" transform="translate(-772.000000, -702.000000)">
            <g id="generate" transform="translate(772.000000, 702.000000)">
                <rect id="Rectangle" fill-opacity="0" fill="#D8D8D8" x="0" y="0" width="20" height="20"></rect>
                <g id="Group-11" transform="translate(1.000000, 1.000000)">
                    <g id="Group-8" transform="translate(0.000000, 6.000000)" stroke="#017AFF" stroke-width="1.7">
                        <path d="M14.9189453,0 L16,0 C17.1045695,0 18,0.8954305 18,2 L18,10 C18,11.1045695 17.1045695,12 16,12 L2,12 C0.8954305,12 0,11.1045695 0,10 L0,2 C0,0.8954305 0.8954305,0 2,0 L3.05810547,0 L3.05810547,0" id="Path"></path>
                    </g>
                    <circle id="Oval" fill="#017AFF" cx="3" cy="15" r="1"></circle>
                    <rect id="Rectangle" stroke="#017AFF" stroke-width="1.6" stroke-linejoin="round" x="3" y="0" width="12" height="12"></rect>
                    <text id="$" font-family="Galvji-Bold, Galvji" font-size="9" font-weight="bold" letter-spacing="0.163636364" fill="#017AFF">
                        <tspan x="6" y="9">$</tspan>
                    </text>
                </g>
            </g>
        </g>
    </g>
</svg>