<?xml version="1.0" encoding="UTF-8"?>
<svg width="22px" height="20px" viewBox="0 0 22 20" version="1.1" xmlns="http://www.w3.org/2000/svg" xmlns:xlink="http://www.w3.org/1999/xlink">
    <title>Group 2</title>
    <g id="Encounters" stroke="none" stroke-width="1" fill="none" fill-rule="evenodd">
        <g id="Claim" transform="translate(-882.000000, -1362.000000)">
            <g id="Group-2" transform="translate(882.000000, 1362.000000)">
                <rect id="Rectangle" fill="#FFFAE3" x="0" y="0" width="22" height="20" rx="2"></rect>
                <path d="M9.74864032,8.75936184 C10.2783313,8.77583422 11.6146693,8.81739178 12.2803987,8.83809175 C12.8003141,8.85426308 12.5518223,9.84848221 12.4439306,10.4624495 C12.2297286,11.6813849 11.8147915,13.2993344 11.9215259,13.7039816 C12.0820215,14.3124461 13.1646578,13.9901608 13.366731,13.6420548 C13.4751237,13.4553299 13.8833333,13.3423443 13.9913909,13.6614806 C14.0229062,13.7545574 13.9607172,13.8558571 13.9205099,14.0136663 C13.8245849,14.3901624 12.9051994,15.1206524 11.9838418,15.2505185 C10.704736,15.4308095 9.9612306,14.8778278 9.60648524,14.1991266 C9.24837183,13.5139817 9.96852538,10.2858639 9.98348042,9.90448753 C9.99843546,9.52311119 9.09704803,9.80779701 9.01965871,9.64903172 C8.94226939,9.49026643 9.07506131,8.73841482 9.74864032,8.75936184 Z M11.5,4 C12.3284271,4 13,4.67157288 13,5.5 C13,6.32842712 12.3284271,7 11.5,7 C10.6715729,7 10,6.32842712 10,5.5 C10,4.67157288 10.6715729,4 11.5,4 Z" id="Combined-Shape" fill="#FFA016"></path>
            </g>
        </g>
    </g>
</svg>