<?xml version="1.0" encoding="UTF-8"?>
<svg width="20px" height="19px" viewBox="0 0 20 19" version="1.1" xmlns="http://www.w3.org/2000/svg" xmlns:xlink="http://www.w3.org/1999/xlink">
    <!-- Generator: Sketch 62 (91390) - https://sketch.com -->
    <title>Group 4</title>
    <desc>Created with Sketch.</desc>
    <g id="Design-Export" stroke="none" stroke-width="1" fill="none" fill-rule="evenodd">
        <g id="Claims" transform="translate(-1109.000000, -241.000000)">
            <g id="Group-4" transform="translate(1110.703613, 242.410936)">
                <circle id="Oval" fill="#979797" cx="8.54638672" cy="3.83906438" r="1.25"></circle>
                <path d="M6.47323608,6.60301091 C6.41363525,6.47785833 6.48727417,5.87275579 6.96798706,5.87275579 C7.34601142,5.87275579 8.29971531,5.87275579 8.77482605,5.87275579 C9.14587402,5.87275579 8.99653861,6.6747341 8.93679455,7.16885148 C8.81818211,8.14984368 8.56763857,9.45521136 8.6550293,9.77644231 C8.78643799,10.2594745 9.5491333,9.97456243 9.68344116,9.69090154 C9.75548426,9.53874508 10.0432981,9.4381482 10.1292419,9.69090154 C10.1543077,9.76461766 10.1128108,9.84724791 10.088562,9.97456243 C10.0307102,10.2783052 9.3957899,10.885889 8.74267578,11.0127704 C7.83596802,11.1889179 7.29054049,10.7648072 7.01870728,10.2303913 C6.74429321,9.69090154 7.16738892,7.08912542 7.16738892,6.78349187 C7.16738892,6.47785833 6.53283691,6.7281635 6.47323608,6.60301091 Z" id="Path-3" fill="#979797" transform="translate(8.296291, 8.463000) rotate(2.000000) translate(-8.296291, -8.463000) "></path>
                <path d="M6.09692383,16.3837421 C6.54138184,16.4128559 7.20881193,15.7600849 9.19580078,13.8839863 C10.7473145,13.8839863 16.3613281,11.900832 16.6162109,6.75300481 C16.8083496,2.99922063 12.7146647,-2.84217094e-14 8.29638672,-2.84217094e-14 C4.04077148,0.0148456305 0.0856933594,3.09101751 2.54019028e-13,6.58906438 C0.0205078125,10.1208027 2.82122803,12.5509174 6.09692383,13.3615253 C5.87548828,16.5197284 5.88421631,16.362685 6.09692383,16.3837421 Z" id="Oval" stroke="#979797" stroke-width="1.5" stroke-linejoin="round"></path>
            </g>
        </g>
    </g>
</svg>