<?xml version="1.0" encoding="UTF-8"?>
<svg width="16px" height="20px" viewBox="0 0 16 20" version="1.1" xmlns="http://www.w3.org/2000/svg" xmlns:xlink="http://www.w3.org/1999/xlink">
    <!-- Generator: Sketch 62 (91390) - https://sketch.com -->
    <title>Enter paper</title>
    <desc>Created with Sketch.</desc>
    <g id="Buttons" stroke="none" stroke-width="1" fill="none" fill-rule="evenodd">
        <g id="Icons" transform="translate(-897.000000, -702.000000)">
            <g id="Enter-paper" transform="translate(895.000000, 702.000000)">
                <g id="Group-31">
                    <rect id="Rectangle" fill-opacity="0" fill="#D8D8D8" x="0" y="0" width="20" height="20"></rect>
                    <g id="Group-17" transform="translate(3.000000, 1.000000)" stroke="#017AFF" stroke-width="1.7">
                        <path d="M1,0 L8.09936523,0 L8.09936523,0 L14,5.36523438 L14,17 C14,17.5522847 13.5522847,18 13,18 L1,18 C0.44771525,18 6.76353751e-17,17.5522847 0,17 L0,1 C-6.76353751e-17,0.44771525 0.44771525,1.01453063e-16 1,0 Z" id="Rectangle"></path>
                        <path d="M13.8771973,6 L9,6 C8.44771525,6 8,5.45612921 8,4.78523059 L8,0 L8,0" id="Path"></path>
                    </g>
                </g>
                <line x1="5.91597057" y1="9.5" x2="9.5" y2="9.5" id="Path-2" stroke="#017AFF" stroke-width="1.7" stroke-linecap="round" stroke-linejoin="round"></line>
                <line x1="5.91597057" y1="12.5" x2="13.9159706" y2="12.5" id="Path-2" stroke="#017AFF" stroke-width="1.7" stroke-linecap="round" stroke-linejoin="round"></line>
                <line x1="5.91597057" y1="15.5" x2="13.9159706" y2="15.5" id="Path-2" stroke="#017AFF" stroke-width="1.7" stroke-linecap="round" stroke-linejoin="round"></line>
            </g>
        </g>
    </g>
</svg>