<?xml version="1.0" encoding="UTF-8"?>
<svg width="16px" height="17px" viewBox="0 0 16 17" version="1.1" xmlns="http://www.w3.org/2000/svg" xmlns:xlink="http://www.w3.org/1999/xlink">
    <!-- Generator: Sketch 62 (91390) - https://sketch.com -->
    <title>Shape</title>
    <desc>Created with Sketch.</desc>
    <g id="bage" stroke="none" stroke-width="1" fill="none" fill-rule="evenodd">
        <g id="New-Header" transform="translate(-309.000000, -682.000000)" fill="#C9C9C9" fill-rule="nonzero">
            <path d="M316.664062,685.146404 C315.629116,685.146404 314.655614,685.542059 313.922127,686.259891 C313.19056,686.977724 312.787334,687.932949 312.787334,688.950349 C312.787334,689.967749 313.19056,690.921091 313.922127,691.640807 C314.653694,692.358639 315.627196,692.754295 316.664062,692.754295 C317.700929,692.754295 318.672511,692.358639 319.405998,691.640807 C320.137565,690.922975 320.540791,689.967749 320.540791,688.950349 C320.540791,687.932949 320.137565,686.979608 319.405998,686.259891 C318.672511,685.542059 317.699009,685.146404 316.664062,685.146404 Z M316.664062,691.409066 C315.281574,691.409066 314.158302,690.306882 314.158302,688.950349 C314.158302,687.593816 315.281574,686.491632 316.664062,686.491632 C318.046551,686.491632 319.169823,687.593816 319.169823,688.950349 C319.169823,690.306882 318.046551,691.409066 316.664062,691.409066 Z M323.549623,685.935831 C323.159838,685.169013 322.606843,684.479441 321.904078,683.884074 C321.207073,683.294359 320.404462,682.830877 319.515445,682.504932 C318.599546,682.169567 317.641405,682 316.665983,682 L316.662142,682 C315.68672,682 314.728579,682.169567 313.81268,682.504932 C312.923663,682.830877 312.121052,683.294359 311.424047,683.884074 C310.721282,684.479441 310.166367,685.170897 309.778502,685.935831 C309.371436,686.738446 309.164062,687.588164 309.164062,688.458606 C309.164062,689.670065 309.467442,690.915438 310.06652,692.160811 C310.561912,693.1914 311.262757,694.231409 312.151774,695.252577 C313.741635,697.080129 315.53119,698.387676 316.226274,698.864347 C316.354923,698.952898 316.506612,699 316.664062,699 C316.819592,699 316.971282,698.952898 317.101851,698.864347 C317.796935,698.387676 319.58841,697.080129 321.176351,695.252577 C322.063448,694.231409 322.766213,693.1914 323.261605,692.160811 C323.860683,690.915438 324.164062,689.668181 324.164062,688.458606 C324.164062,687.58628 323.956689,686.738446 323.549623,685.935831 Z M322.791175,688.46049 C322.791175,689.472238 322.531958,690.525435 322.019285,691.589937 C321.579577,692.509365 320.944016,693.447634 320.133725,694.38025 C318.868364,695.83664 317.451313,696.950127 316.664062,697.517234 C315.876812,696.948243 314.459761,695.83664 313.1944,694.38025 C312.384109,693.447634 311.748548,692.507481 311.30692,691.588053 C310.794247,690.523551 310.53503,689.470354 310.53503,688.458606 C310.53503,687.795412 310.69248,687.14729 311.00546,686.534966 C311.3146,685.928294 311.756228,685.378145 312.320745,684.89959 C312.892941,684.413499 313.557304,684.031032 314.290791,683.761609 C315.055,683.482766 315.853771,683.341461 316.662142,683.341461 L316.665983,683.341461 C317.476274,683.341461 318.275046,683.482766 319.035414,683.761609 C319.770821,684.031032 320.433264,684.413499 321.00738,684.89959 C321.573817,685.378145 322.015445,685.928294 322.320745,686.534966 C322.633725,687.152942 322.791175,687.79918 322.791175,688.46049 Z" id="Shape"></path>
        </g>
    </g>
</svg>