<?xml version="1.0" encoding="UTF-8"?>
<svg width="20px" height="20px" viewBox="0 0 20 20" version="1.1" xmlns="http://www.w3.org/2000/svg" xmlns:xlink="http://www.w3.org/1999/xlink">
    <!-- Generator: Sketch 62 (91390) - https://sketch.com -->
    <title>info</title>
    <desc>Created with Sketch.</desc>
    <g id="bage" stroke="none" stroke-width="1" fill="none" fill-rule="evenodd">
        <g id="New-Header" transform="translate(-783.000000, -138.000000)" fill="#0079FF" fill-rule="nonzero" stroke="#0079FF" stroke-width="0.25">
            <g id="info" transform="translate(784.000000, 139.000000)">
                <path d="M17.413768,9.00182852 C17.0652462,8.97546154 16.7607297,9.23737355 16.7343265,9.58541769 C16.588229,11.5260274 15.7204449,13.3277711 14.2911535,14.6584247 C12.8530611,15.9978673 10.9784363,16.7343849 9.01228059,16.7343849 C7.48089698,16.7343849 6.00055948,16.2896619 4.73144731,15.4459185 C3.6154735,14.7058853 2.71600566,13.6986666 2.11225326,12.5156681 L3.87246432,12.5156681 C4.22274632,12.5156681 4.5061403,12.2326625 4.5061403,11.8828606 C4.5061403,11.5330586 4.22274632,11.250053 3.87246432,11.250053 L0.633675979,11.250053 C0.28339398,11.250053 0,11.5330586 0,11.8828606 L0,15.1172102 C0,15.4670121 0.28339398,15.7500177 0.633675979,15.7500177 C0.983957979,15.7500177 1.26735196,15.4670121 1.26735196,15.1172102 L1.26735196,13.6055033 C1.95559448,14.760377 2.89730739,15.7482599 4.0291231,16.5005977 C5.50770039,17.4814494 7.2291868,18 9.01228059,18 C11.300555,18 13.4832167,17.1421942 15.1554172,15.5847846 C16.8205768,14.036164 17.8291778,11.9391101 17.998158,9.68033882 C18.0245612,9.33229468 17.76405,9.02819551 17.413768,9.00182852 Z M17.3663856,2.25 C17.0161376,2.25 16.7327712,2.53300781 16.7327712,2.8828125 L16.7327712,4.39453125 C16.0445955,3.23964844 15.1029741,2.25175781 13.9695084,1.49941406 C12.4928348,0.518554688 10.7697556,0 8.98859515,0 C6.70054313,0 4.51809352,0.8578125 2.84605551,2.41523438 C1.18105766,3.96386719 0.172554737,6.0609375 0.00183085642,8.31972656 C-0.0245697437,8.66777344 0.237676218,8.971875 0.58616414,8.99824219 C0.6020045,9 0.61784486,9 0.63368522,9 C0.962812702,9 1.23913898,8.746875 1.26553958,8.41464844 C1.4116229,6.47402344 2.27932263,4.67226562 3.70847512,3.34160156 C5.14818785,2.00214844 7.02263046,1.265625 8.98859515,1.265625 C10.51983,1.265625 12.0000236,1.71035156 13.2690125,2.55410156 C14.3848778,3.29414063 15.2842583,4.30136719 15.887952,5.484375 L14.127912,5.484375 C13.777664,5.484375 13.4942976,5.76738281 13.4942976,6.1171875 C13.4942976,6.46699219 13.777664,6.75 14.127912,6.75 L17.3663856,6.75 C17.7166336,6.75 18,6.46699219 18,6.1171875 L18,2.8828125 C18,2.53300781 17.7166336,2.25 17.3663856,2.25 Z" id="Shape"></path>
            </g>
        </g>
    </g>
</svg>