<?xml version="1.0" encoding="UTF-8"?>
<svg width="16px" height="20px" viewBox="0 0 16 20" version="1.1" xmlns="http://www.w3.org/2000/svg" xmlns:xlink="http://www.w3.org/1999/xlink">
    <!-- Generator: Sketch 62 (91390) - https://sketch.com -->
    <title>Group</title>
    <desc>Created with Sketch.</desc>
    <g id="New-Notes" stroke="none" stroke-width="1" fill="none" fill-rule="evenodd">
        <g id="Rejected-Workflow" transform="translate(-802.000000, -1087.000000)">
            <g id="Group" transform="translate(803.000000, 1088.500000)">
                <polygon id="Rectangle" stroke="#017AFF" stroke-width="1.7" stroke-linejoin="round" points="0 0 3.48253038 2 6.90011936 0 10.6781141 2 14 0 14 17 10.9519314 15 7.29812283 17 3.25922309 15 0 17"></polygon>
                <path d="M7.38378906,12.5644531 L7.38378906,11.5830078 C7.99251302,11.5244141 8.47347005,11.3193359 8.82666016,10.9677734 C9.17985026,10.6162109 9.35644531,10.1621094 9.35644531,9.60546875 C9.35644531,9.27669271 9.30110677,8.99511719 9.19042969,8.76074219 C9.0797526,8.52636719 8.92675781,8.32128906 8.73144531,8.14550781 C8.53613281,7.96972656 8.30419922,7.81266276 8.03564453,7.67431641 C7.76708984,7.53597005 7.48144531,7.40250651 7.17871094,7.27392578 C6.87597656,7.14534505 6.65625,7.01025391 6.51953125,6.86865234 C6.3828125,6.72705078 6.31445312,6.53580729 6.31445312,6.29492188 C6.31445312,6.05729167 6.37386068,5.87093099 6.49267578,5.73583984 C6.61149089,5.6007487 6.77832031,5.53320312 6.99316406,5.53320312 C7.23404948,5.53320312 7.41959635,5.62434896 7.54980469,5.80664062 C7.68001302,5.98893229 7.74511719,6.24934896 7.74511719,6.58789062 L7.74511719,6.58789062 L9.39550781,6.58789062 C9.39550781,5.96940104 9.22542318,5.45914714 8.88525391,5.05712891 C8.54508464,4.65511068 8.07714844,4.41015625 7.48144531,4.32226562 L7.48144531,4.32226562 L7.48144531,3.27246094 L6.70507812,3.27246094 L6.70507812,4.30273438 C6.08658854,4.36132812 5.59179688,4.56884766 5.22070312,4.92529297 C4.84960938,5.28173828 4.6640625,5.73502604 4.6640625,6.28515625 C4.6640625,6.61393229 4.71614583,6.89388021 4.8203125,7.125 C4.92447917,7.35611979 5.07421875,7.55957031 5.26953125,7.73535156 C5.46484375,7.91113281 5.69759115,8.06575521 5.96777344,8.19921875 C6.23795573,8.33268229 6.53255208,8.46451823 6.8515625,8.59472656 C7.17057292,8.7249349 7.39355469,8.86328125 7.52050781,9.00976562 C7.64746094,9.15625 7.7109375,9.35807292 7.7109375,9.61523438 C7.7109375,9.84635417 7.64746094,10.027832 7.52050781,10.159668 C7.39355469,10.2915039 7.21940104,10.3574219 6.99804688,10.3574219 C6.6953125,10.3574219 6.4617513,10.2605794 6.29736328,10.0668945 C6.13297526,9.87320964 6.05078125,9.59082031 6.05078125,9.21972656 L6.05078125,9.21972656 L4.40527344,9.21972656 C4.40527344,9.89355469 4.59488932,10.4363607 4.97412109,10.8481445 C5.35335286,11.2599284 5.89778646,11.5032552 6.60742188,11.578125 L6.60742188,11.578125 L6.60742188,12.5644531 L7.38378906,12.5644531 Z" id="$" fill="#017AFF" fill-rule="nonzero"></path>
            </g>
        </g>
    </g>
</svg>